<?xml version="1.0" standalone="no"?><!DOCTYPE svg PUBLIC "-//W3C//DTD SVG 1.1//EN" "http://www.w3.org/Graphics/SVG/1.1/DTD/svg11.dtd"><svg t="1628690178551" class="icon" viewBox="0 0 1024 1024" version="1.1" xmlns="http://www.w3.org/2000/svg" p-id="8435" xmlns:xlink="http://www.w3.org/1999/xlink" width="200" height="200"><defs><style type="text/css"></style></defs><path d="M554.56 231.68L62.08 724.16A103.04 103.04 0 0 0 32 797.12V960a32 32 0 0 0 32 32h163.52a101.44 101.44 0 0 0 71.68-29.76l492.8-493.12zM128 896v-128c97.92 0 128 30.08 128 128zM849.92 46.4a102.72 102.72 0 0 0-125.44 15.68l-77.76 77.76 237.44 237.44 77.76-77.76a103.04 103.04 0 0 0 15.68-125.44 369.92 369.92 0 0 0-127.68-127.68z" fill="#231F20" p-id="8436"></path></svg>